<?xml version="1.0"?>
<svg xmlns="http://www.w3.org/2000/svg" xmlns:xlink="http://www.w3.org/1999/xlink" xmlns:svgjs="http://svgjs.com/svgjs" version="1.1" width="512" height="512" x="0" y="0" viewBox="0 0 16 16" style="enable-background:new 0 0 512 512" xml:space="preserve" class=""><g>
<path xmlns="http://www.w3.org/2000/svg" fill="#d7d7d7" d="M2.1 3.1c0.2 1.3 0.4 1.6 0.4 2.9 0 0.8-1.5 1.5-1.5 1.5v1c0 0 1.5 0.7 1.5 1.5 0 1.3-0.2 1.6-0.4 2.9-0.3 2.1 0.8 3.1 1.8 3.1s2.1 0 2.1 0v-2c0 0-1.8 0.2-1.8-1 0-0.9 0.2-0.9 0.4-2.9 0.1-0.9-0.5-1.6-1.1-2.1 0.6-0.5 1.2-1.1 1.1-2-0.3-2-0.4-2-0.4-2.9 0-1.2 1.8-1.1 1.8-1.1v-2c0 0-1 0-2.1 0s-2.1 1-1.8 3.1z" data-original="#444444" style="" class=""/>
<path xmlns="http://www.w3.org/2000/svg" fill="#d7d7d7" d="M13.9 3.1c-0.2 1.3-0.4 1.6-0.4 2.9 0 0.8 1.5 1.5 1.5 1.5v1c0 0-1.5 0.7-1.5 1.5 0 1.3 0.2 1.6 0.4 2.9 0.3 2.1-0.8 3.1-1.8 3.1s-2.1 0-2.1 0v-2c0 0 1.8 0.2 1.8-1 0-0.9-0.2-0.9-0.4-2.9-0.1-0.9 0.5-1.6 1.1-2.1-0.6-0.5-1.2-1.1-1.1-2 0.2-2 0.4-2 0.4-2.9 0-1.2-1.8-1.1-1.8-1.1v-2c0 0 1 0 2.1 0s2.1 1 1.8 3.1z" data-original="#444444" style="" class=""/>
</g></svg>
