<svg width="300" height="170" viewBox="0 0 300 170" fill="none" xmlns="http://www.w3.org/2000/svg">
<path d="M0 125C0 123.343 1.34315 122 3 122H297C298.657 122 300 123.343 300 125V167C300 168.657 298.657 170 297 170H3C1.34314 170 0 168.657 0 167V125Z" fill="#FFE03F"/>
<path d="M0 3C0 1.34315 1.34315 0 3 0H297C298.657 0 300 1.34315 300 3V45C300 46.6569 298.657 48 297 48H3C1.34314 48 0 46.6569 0 45V3Z" fill="#FFE03F"/>
<path d="M0.943115 1L98 75.1886V95.1886L0.933228 169.368C0.358398 168.825 0 168.057 0 167.206V3.17107C0 2.31538 0.362549 1.54392 0.943115 1Z" fill="#600082"/>
<path d="M299.057 169.179L202 94.9907V74.9907L299.067 0.811386C299.642 1.35471 300 2.12228 300 2.97311V167.008C300 167.864 299.637 168.635 299.057 169.179Z" fill="#600082"/>

<path d="M51.9556 39.8044L98 75V95L51.9509 130.191C51.3657 129.644 51 128.865 51 128V42C51 41.1331 51.3677 40.3521 51.9556 39.8044Z" fill="#FF6565"/>
<path d="M248.044 130.191L202 94.9956V74.9956L248.049 39.8045C248.634 40.3519 249 41.1311 249 41.9956V127.996C249 128.862 248.632 129.643 248.044 130.191Z" fill="#FF6565"/>
<path d="M51.9581 130.194C52.4941 130.694 53.2136 131 54.0047 131L246.005 131C246.795 131 247.513 130.695 248.049 130.196L202.005 95V91L98.0047 91V95.0044L51.9581 130.194Z" fill="#51FF58"/>
<path d="M248.047 39.8064C247.511 39.3062 246.791 39 246 39H54C53.21 39 52.4913 39.3053 51.9556 39.8044L98 75V79H202V74.9956L248.047 39.8064Z" fill="#51FF58"/>
<path d="M97 77C97 75.3431 98.3431 74 100 74H200C201.657 74 203 75.3431 203 77V93C203 94.6569 201.657 96 200 96H100C98.3431 96 97 94.6569 97 93V77Z" fill="#29BFFF"/>
<path d="M4.79901 5.72727H6.13068L8.44602 11.3807H8.53125L10.8466 5.72727H12.1783V13H11.1342V7.73722H11.0668L8.92188 12.9893H8.0554L5.91051 7.73366H5.84304V13H4.79901V5.72727ZM14.388 13H13.2232L15.8404 5.72727H17.1081L19.7253 13H18.5605L16.5044 7.0483H16.4476L14.388 13ZM14.5833 10.152H18.3617V11.0753H14.5833V10.152ZM20.7756 13V5.72727H23.3679C23.9313 5.72727 24.3989 5.82434 24.7706 6.01847C25.1446 6.21259 25.424 6.4813 25.6087 6.82457C25.7933 7.16548 25.8857 7.55966 25.8857 8.0071C25.8857 8.45218 25.7921 8.84399 25.6051 9.18253C25.4205 9.5187 25.1411 9.7803 24.767 9.96733C24.3954 10.1544 23.9278 10.2479 23.3643 10.2479H21.4006V9.30327H23.2649C23.62 9.30327 23.9089 9.25237 24.1314 9.15057C24.3563 9.04877 24.5208 8.9008 24.625 8.70668C24.7292 8.51255 24.7812 8.27936 24.7812 8.0071C24.7812 7.73248 24.728 7.49455 24.6214 7.29332C24.5173 7.09209 24.3527 6.93821 24.1278 6.83168C23.9053 6.72277 23.6129 6.66832 23.2507 6.66832H21.8729V13H20.7756ZM24.3658 9.71875L26.1626 13H24.9126L23.1513 9.71875H24.3658ZM32.1428 8.02486C32.0741 7.80942 31.9818 7.61648 31.8658 7.44602C31.7521 7.2732 31.616 7.12642 31.4574 7.00568C31.2988 6.88258 31.1177 6.78906 30.9141 6.72514C30.7128 6.66122 30.4915 6.62926 30.25 6.62926C29.8404 6.62926 29.4711 6.73461 29.142 6.94531C28.813 7.15601 28.5526 7.46496 28.3608 7.87216C28.1714 8.27699 28.0767 8.77296 28.0767 9.36009C28.0767 9.94957 28.1726 10.4479 28.3643 10.8551C28.5561 11.2623 28.8189 11.5713 29.1527 11.782C29.4865 11.9927 29.8665 12.098 30.2926 12.098C30.688 12.098 31.0324 12.0175 31.326 11.8565C31.6219 11.6955 31.8504 11.4683 32.0114 11.1747C32.1747 10.8788 32.2564 10.5308 32.2564 10.1307L32.5405 10.1839H30.4595V9.27841H33.3182V10.1058C33.3182 10.7166 33.188 11.2469 32.9276 11.6967C32.6695 12.1442 32.312 12.4898 31.8551 12.7337C31.4006 12.9775 30.8797 13.0994 30.2926 13.0994C29.6345 13.0994 29.0568 12.9479 28.5597 12.6449C28.0649 12.3419 27.679 11.9122 27.402 11.3558C27.125 10.7971 26.9865 10.1342 26.9865 9.36719C26.9865 8.78717 27.067 8.26634 27.228 7.80469C27.389 7.34304 27.6151 6.95123 27.9062 6.62926C28.1998 6.30492 28.5443 6.05753 28.9396 5.88707C29.3374 5.71425 29.7718 5.62784 30.2429 5.62784C30.6359 5.62784 31.0017 5.68584 31.3402 5.80185C31.6811 5.91785 31.9841 6.08239 32.2493 6.29545C32.5168 6.50852 32.7382 6.76184 32.9134 7.0554C33.0885 7.34659 33.2069 7.66974 33.2685 8.02486H32.1428ZM35.8084 5.72727V13H34.7111V5.72727H35.8084ZM43.2765 5.72727V13H42.2679L38.5712 7.66619H38.5037V13H37.4064V5.72727H38.4221L42.1223 11.0682H42.1898V5.72727H43.2765Z" fill="black"/>
<path d="M55.799 52V44.7273H58.3913C58.9571 44.7273 59.4259 44.8303 59.7976 45.0362C60.1693 45.2422 60.4474 45.5239 60.6321 45.8814C60.8168 46.2365 60.9091 46.6366 60.9091 47.0817C60.9091 47.5291 60.8156 47.9316 60.6286 48.2891C60.4439 48.6442 60.1645 48.9259 59.7905 49.1342C59.4188 49.3402 58.9512 49.4432 58.3878 49.4432H56.6051V48.5128H58.2884C58.6458 48.5128 58.9358 48.4512 59.1584 48.3281C59.3809 48.2027 59.5443 48.0322 59.6484 47.8168C59.7526 47.6013 59.8047 47.3563 59.8047 47.0817C59.8047 46.8071 59.7526 46.5632 59.6484 46.3501C59.5443 46.1371 59.3797 45.9702 59.1548 45.8494C58.9323 45.7287 58.6387 45.6683 58.2741 45.6683H56.8963V52H55.799ZM62.0384 52H60.8736L63.4908 44.7273H64.7585L67.3757 52H66.2109L64.1548 46.0483H64.098L62.0384 52ZM62.2337 49.152H66.0121V50.0753H62.2337V49.152ZM70.7804 52H68.426V44.7273H70.8549C71.5675 44.7273 72.1795 44.8729 72.6909 45.1641C73.2022 45.4529 73.594 45.8684 73.8663 46.4105C74.1409 46.9503 74.2782 47.5978 74.2782 48.353C74.2782 49.1106 74.1397 49.7616 73.8627 50.3061C73.5881 50.8506 73.1904 51.2696 72.6696 51.5632C72.1487 51.8544 71.519 52 70.7804 52ZM69.5233 51.0412H70.72C71.274 51.0412 71.7344 50.937 72.1014 50.7287C72.4683 50.518 72.743 50.2138 72.9252 49.8161C73.1075 49.416 73.1987 48.9283 73.1987 48.353C73.1987 47.7824 73.1075 47.2983 72.9252 46.9006C72.7453 46.5028 72.4766 46.201 72.1191 45.995C71.7617 45.7891 71.3178 45.6861 70.7875 45.6861H69.5233V51.0412ZM77.9972 52H75.6428V44.7273H78.0717C78.7843 44.7273 79.3963 44.8729 79.9077 45.1641C80.419 45.4529 80.8108 45.8684 81.0831 46.4105C81.3577 46.9503 81.495 47.5978 81.495 48.353C81.495 49.1106 81.3565 49.7616 81.0795 50.3061C80.8049 50.8506 80.4072 51.2696 79.8864 51.5632C79.3655 51.8544 78.7358 52 77.9972 52ZM76.7401 51.0412H77.9368C78.4908 51.0412 78.9512 50.937 79.3182 50.7287C79.6851 50.518 79.9598 50.2138 80.142 49.8161C80.3243 49.416 80.4155 48.9283 80.4155 48.353C80.4155 47.7824 80.3243 47.2983 80.142 46.9006C79.9621 46.5028 79.6934 46.201 79.3359 45.995C78.9785 45.7891 78.5346 45.6861 78.0043 45.6861H76.7401V51.0412ZM83.9569 44.7273V52H82.8596V44.7273H83.9569ZM91.4249 44.7273V52H90.4164L86.7196 46.6662H86.6522V52H85.5549V44.7273H86.5705L90.2708 50.0682H90.3382V44.7273H91.4249ZM97.9474 47.0249C97.8788 46.8094 97.7865 46.6165 97.6705 46.446C97.5568 46.2732 97.4207 46.1264 97.2621 46.0057C97.1035 45.8826 96.9223 45.7891 96.7188 45.7251C96.5175 45.6612 96.2962 45.6293 96.0547 45.6293C95.6451 45.6293 95.2758 45.7346 94.9467 45.9453C94.6177 46.156 94.3572 46.465 94.1655 46.8722C93.9761 47.277 93.8814 47.773 93.8814 48.3601C93.8814 48.9496 93.9773 49.4479 94.169 49.8551C94.3608 50.2623 94.6236 50.5713 94.9574 50.782C95.2912 50.9927 95.6712 51.098 96.0973 51.098C96.4927 51.098 96.8371 51.0175 97.1307 50.8565C97.4266 50.6955 97.6551 50.4683 97.8161 50.1747C97.9794 49.8788 98.0611 49.5308 98.0611 49.1307L98.3452 49.1839H96.2642V48.2784H99.1229V49.1058C99.1229 49.7166 98.9927 50.2469 98.7322 50.6967C98.4742 51.1442 98.1167 51.4898 97.6598 51.7337C97.2053 51.9775 96.6844 52.0994 96.0973 52.0994C95.4392 52.0994 94.8615 51.9479 94.3643 51.6449C93.8696 51.3419 93.4837 50.9122 93.2067 50.3558C92.9297 49.7971 92.7912 49.1342 92.7912 48.3672C92.7912 47.7872 92.8717 47.2663 93.0327 46.8047C93.1937 46.343 93.4197 45.9512 93.7109 45.6293C94.0045 45.3049 94.349 45.0575 94.7443 44.8871C95.142 44.7143 95.5765 44.6278 96.0476 44.6278C96.4406 44.6278 96.8063 44.6858 97.1449 44.8018C97.4858 44.9179 97.7888 45.0824 98.054 45.2955C98.3215 45.5085 98.5429 45.7618 98.718 46.0554C98.8932 46.3466 99.0116 46.6697 99.0732 47.0249H97.9474Z" fill="black"/>
<path d="M149.878 158.145C149.205 158.142 148.629 157.964 148.152 157.612C147.675 157.26 147.31 156.747 147.057 156.074C146.804 155.401 146.678 154.589 146.678 153.641C146.678 152.695 146.804 151.886 147.057 151.216C147.313 150.545 147.679 150.034 148.156 149.682C148.636 149.33 149.21 149.153 149.878 149.153C150.545 149.153 151.118 149.331 151.595 149.686C152.072 150.038 152.438 150.55 152.69 151.22C152.946 151.888 153.074 152.695 153.074 153.641C153.074 154.592 152.947 155.405 152.695 156.078C152.442 156.749 152.077 157.261 151.599 157.616C151.122 157.969 150.548 158.145 149.878 158.145ZM149.878 157.007C150.469 157.007 150.93 156.719 151.263 156.142C151.598 155.565 151.766 154.732 151.766 153.641C151.766 152.916 151.689 152.304 151.536 151.804C151.385 151.301 151.168 150.92 150.884 150.662C150.602 150.401 150.267 150.27 149.878 150.27C149.29 150.27 148.828 150.56 148.493 151.139C148.158 151.719 147.989 152.553 147.986 153.641C147.986 154.368 148.061 154.983 148.212 155.486C148.365 155.986 148.582 156.365 148.864 156.624C149.145 156.879 149.483 157.007 149.878 157.007Z" fill="white"/>
<path d="M149.878 118.145C149.205 118.142 148.629 117.964 148.152 117.612C147.675 117.26 147.31 116.747 147.057 116.074C146.804 115.401 146.678 114.589 146.678 113.641C146.678 112.695 146.804 111.886 147.057 111.216C147.313 110.545 147.679 110.034 148.156 109.682C148.636 109.33 149.21 109.153 149.878 109.153C150.545 109.153 151.118 109.331 151.595 109.686C152.072 110.038 152.438 110.55 152.69 111.22C152.946 111.888 153.074 112.695 153.074 113.641C153.074 114.592 152.947 115.405 152.695 116.078C152.442 116.749 152.077 117.261 151.599 117.616C151.122 117.969 150.548 118.145 149.878 118.145ZM149.878 117.007C150.469 117.007 150.93 116.719 151.263 116.142C151.598 115.565 151.766 114.732 151.766 113.641C151.766 112.916 151.689 112.304 151.536 111.804C151.385 111.301 151.168 110.92 150.884 110.662C150.602 110.401 150.267 110.27 149.878 110.27C149.29 110.27 148.828 110.56 148.493 111.139C148.158 111.719 147.989 112.553 147.986 113.641C147.986 114.368 148.061 114.983 148.212 115.486C148.365 115.986 148.582 116.365 148.864 116.624C149.145 116.879 149.483 117.007 149.878 117.007Z" fill="white"/>
<path d="M24.8778 91.1449C24.2045 91.142 23.6293 90.9645 23.152 90.6122C22.6747 90.2599 22.3097 89.7472 22.0568 89.0739C21.804 88.4006 21.6776 87.5895 21.6776 86.6406C21.6776 85.6946 21.804 84.8864 22.0568 84.2159C22.3125 83.5455 22.679 83.0341 23.1562 82.6818C23.6364 82.3295 24.2102 82.1534 24.8778 82.1534C25.5455 82.1534 26.1179 82.331 26.5952 82.6861C27.0724 83.0384 27.4375 83.5497 27.6903 84.2202C27.946 84.8878 28.0739 85.6946 28.0739 86.6406C28.0739 87.5923 27.9474 88.4048 27.6946 89.0781C27.4418 89.7486 27.0767 90.2614 26.5994 90.6165C26.1222 90.9688 25.5483 91.1449 24.8778 91.1449ZM24.8778 90.0071C25.4688 90.0071 25.9304 89.7188 26.2628 89.142C26.598 88.5653 26.7656 87.7315 26.7656 86.6406C26.7656 85.9162 26.6889 85.304 26.5355 84.804C26.3849 84.3011 26.1676 83.9205 25.8835 83.6619C25.6023 83.4006 25.267 83.2699 24.8778 83.2699C24.2898 83.2699 23.8281 83.5597 23.4929 84.1392C23.1577 84.7187 22.9886 85.5526 22.9858 86.6406C22.9858 87.3679 23.0611 87.983 23.2116 88.4858C23.3651 88.9858 23.5824 89.3651 23.8636 89.6236C24.1449 89.8793 24.483 90.0071 24.8778 90.0071Z" fill="white"/>
<path d="M70.8778 91.1449C70.2045 91.142 69.6293 90.9645 69.152 90.6122C68.6747 90.2599 68.3097 89.7472 68.0568 89.0739C67.804 88.4006 67.6776 87.5895 67.6776 86.6406C67.6776 85.6946 67.804 84.8864 68.0568 84.2159C68.3125 83.5455 68.679 83.0341 69.1562 82.6818C69.6364 82.3295 70.2102 82.1534 70.8778 82.1534C71.5455 82.1534 72.1179 82.331 72.5952 82.6861C73.0724 83.0384 73.4375 83.5497 73.6903 84.2202C73.946 84.8878 74.0739 85.6946 74.0739 86.6406C74.0739 87.5923 73.9474 88.4048 73.6946 89.0781C73.4418 89.7486 73.0767 90.2614 72.5994 90.6165C72.1222 90.9688 71.5483 91.1449 70.8778 91.1449ZM70.8778 90.0071C71.4688 90.0071 71.9304 89.7188 72.2628 89.142C72.598 88.5653 72.7656 87.7315 72.7656 86.6406C72.7656 85.9162 72.6889 85.304 72.5355 84.804C72.3849 84.3011 72.1676 83.9205 71.8835 83.6619C71.6023 83.4006 71.267 83.2699 70.8778 83.2699C70.2898 83.2699 69.8281 83.5597 69.4929 84.1392C69.1577 84.7187 68.9886 85.5526 68.9858 86.6406C68.9858 87.3679 69.0611 87.983 69.2116 88.4858C69.3651 88.9858 69.5824 89.3651 69.8636 89.6236C70.1449 89.8793 70.483 90.0071 70.8778 90.0071Z" fill="white"/>
<path d="M228.878 91.1449C228.205 91.142 227.629 90.9645 227.152 90.6122C226.675 90.2599 226.31 89.7472 226.057 89.0739C225.804 88.4006 225.678 87.5895 225.678 86.6406C225.678 85.6946 225.804 84.8864 226.057 84.2159C226.313 83.5455 226.679 83.0341 227.156 82.6818C227.636 82.3295 228.21 82.1534 228.878 82.1534C229.545 82.1534 230.118 82.331 230.595 82.6861C231.072 83.0384 231.438 83.5497 231.69 84.2202C231.946 84.8878 232.074 85.6946 232.074 86.6406C232.074 87.5923 231.947 88.4048 231.695 89.0781C231.442 89.7486 231.077 90.2614 230.599 90.6165C230.122 90.9688 229.548 91.1449 228.878 91.1449ZM228.878 90.0071C229.469 90.0071 229.93 89.7188 230.263 89.142C230.598 88.5653 230.766 87.7315 230.766 86.6406C230.766 85.9162 230.689 85.304 230.536 84.804C230.385 84.3011 230.168 83.9205 229.884 83.6619C229.602 83.4006 229.267 83.2699 228.878 83.2699C228.29 83.2699 227.828 83.5597 227.493 84.1392C227.158 84.7187 226.989 85.5526 226.986 86.6406C226.986 87.3679 227.061 87.983 227.212 88.4858C227.365 88.9858 227.582 89.3651 227.864 89.6236C228.145 89.8793 228.483 90.0071 228.878 90.0071Z" fill="white"/>
<path d="M274.878 91.1449C274.205 91.142 273.629 90.9645 273.152 90.6122C272.675 90.2599 272.31 89.7472 272.057 89.0739C271.804 88.4006 271.678 87.5895 271.678 86.6406C271.678 85.6946 271.804 84.8864 272.057 84.2159C272.313 83.5455 272.679 83.0341 273.156 82.6818C273.636 82.3295 274.21 82.1534 274.878 82.1534C275.545 82.1534 276.118 82.331 276.595 82.6861C277.072 83.0384 277.438 83.5497 277.69 84.2202C277.946 84.8878 278.074 85.6946 278.074 86.6406C278.074 87.5923 277.947 88.4048 277.695 89.0781C277.442 89.7486 277.077 90.2614 276.599 90.6165C276.122 90.9688 275.548 91.1449 274.878 91.1449ZM274.878 90.0071C275.469 90.0071 275.93 89.7188 276.263 89.142C276.598 88.5653 276.766 87.7315 276.766 86.6406C276.766 85.9162 276.689 85.304 276.536 84.804C276.385 84.3011 276.168 83.9205 275.884 83.6619C275.602 83.4006 275.267 83.2699 274.878 83.2699C274.29 83.2699 273.828 83.5597 273.493 84.1392C273.158 84.7187 272.989 85.5526 272.986 86.6406C272.986 87.3679 273.061 87.983 273.212 88.4858C273.365 88.9858 273.582 89.3651 273.864 89.6236C274.145 89.8793 274.483 90.0071 274.878 90.0071Z" fill="white"/>
<path d="M149.878 26.1449C149.205 26.142 148.629 25.9645 148.152 25.6122C147.675 25.2599 147.31 24.7472 147.057 24.0739C146.804 23.4006 146.678 22.5895 146.678 21.6406C146.678 20.6946 146.804 19.8864 147.057 19.2159C147.313 18.5455 147.679 18.0341 148.156 17.6818C148.636 17.3295 149.21 17.1534 149.878 17.1534C150.545 17.1534 151.118 17.331 151.595 17.6861C152.072 18.0384 152.438 18.5497 152.69 19.2202C152.946 19.8878 153.074 20.6946 153.074 21.6406C153.074 22.5923 152.947 23.4048 152.695 24.0781C152.442 24.7486 152.077 25.2614 151.599 25.6165C151.122 25.9688 150.548 26.1449 149.878 26.1449ZM149.878 25.0071C150.469 25.0071 150.93 24.7188 151.263 24.142C151.598 23.5653 151.766 22.7315 151.766 21.6406C151.766 20.9162 151.689 20.304 151.536 19.804C151.385 19.3011 151.168 18.9205 150.884 18.6619C150.602 18.4006 150.267 18.2699 149.878 18.2699C149.29 18.2699 148.828 18.5597 148.493 19.1392C148.158 19.7187 147.989 20.5526 147.986 21.6406C147.986 22.3679 148.061 22.983 148.212 23.4858C148.365 23.9858 148.582 24.3651 148.864 24.6236C149.145 24.8793 149.483 25.0071 149.878 25.0071Z" fill="white"/>
<path d="M149.878 61.1449C149.205 61.142 148.629 60.9645 148.152 60.6122C147.675 60.2599 147.31 59.7472 147.057 59.0739C146.804 58.4006 146.678 57.5895 146.678 56.6406C146.678 55.6946 146.804 54.8864 147.057 54.2159C147.313 53.5455 147.679 53.0341 148.156 52.6818C148.636 52.3295 149.21 52.1534 149.878 52.1534C150.545 52.1534 151.118 52.331 151.595 52.6861C152.072 53.0384 152.438 53.5497 152.69 54.2202C152.946 54.8878 153.074 55.6946 153.074 56.6406C153.074 57.5923 152.947 58.4048 152.695 59.0781C152.442 59.7486 152.077 60.2614 151.599 60.6165C151.122 60.9688 150.548 61.1449 149.878 61.1449ZM149.878 60.0071C150.469 60.0071 150.93 59.7188 151.263 59.142C151.598 58.5653 151.766 57.7315 151.766 56.6406C151.766 55.9162 151.689 55.304 151.536 54.804C151.385 54.3011 151.168 53.9205 150.884 53.6619C150.602 53.4006 150.267 53.2699 149.878 53.2699C149.29 53.2699 148.828 53.5597 148.493 54.1392C148.158 54.7187 147.989 55.5526 147.986 56.6406C147.986 57.3679 148.061 57.983 148.212 58.4858C148.365 58.9858 148.582 59.3651 148.864 59.6236C149.145 59.8793 149.483 60.0071 149.878 60.0071Z" fill="white"/>
</svg>
