<svg width="300" height="170" viewBox="0 0 300 170" fill="none" xmlns="http://www.w3.org/2000/svg">

<!-- mb  -->
<rect y="122" width="300" height="48" rx="3" fill="blue"/>

<!-- mt -->
<rect width="300" height="48" rx="3" fill="#fff"/>

<!-- ml -->
<path d="M0.943115 1L98 75.1886V95.1886L0.933228 169.368C0.358398 168.825 0 168.057 0 167.206V3.17107C0 2.31538 0.362549 1.54392 0.943115 1Z" 
fill="green"/>
<!-- mr -->
<path d="M299.057 169.179L202 94.9907V74.9907L299.067 0.811386C299.642 1.35471 300 2.12228 300 2.97311V167.008C300 167.864 299.637 168.635 299.057 169.179Z" 
fill="green"/>
<!-- pl -->
<path d="M51.9556 39.8044L98 75V95L51.9509 130.191C51.3657 129.644 51 128.865 51 128V42C51 41.1331 51.3677 40.3521 51.9556 39.8044Z" 
fill="green"/>
<!-- pr -->
<path d="M248.044 130.191L202 94.9956V74.9956L248.049 39.8045C248.634 40.3519 249 41.1311 249 41.9956V127.996C249 128.862 248.632 129.643 248.044 130.191Z" 
fill="green"/>
<!-- pb -->
<path d="M51.9581 130.194C52.4941 130.694 53.2136 131 54.0047 131L246.005 131C246.795 131 247.513 130.695 248.049 130.196L202.005 95V91L98.0047 91V95.0044L51.9581 130.194Z" 
fill="green"/>
<!-- pt -->
<path d="M248.047 39.8064C247.511 39.3062 246.791 39 246 39H54C53.21 39 52.4913 39.3053 51.9556 39.8044L98 75V79H202V74.9956L248.047 39.8064Z" 
fill="green"/>
<!-- pb -->
<path d="M97 77C97 75.3431 98.3431 74 100 74H200C201.657 74 203 75.3431 203 77V93C203 94.6569 201.657 96 200 96H100C98.3431 96 97 94.6569 97 93V77Z" 
fill="red"/>
<path d="M4.79901 5.72727H6.13068L8.44602 11.3807H8.53125L10.8466 5.72727H12.1783V13H11.1342V7.73722H11.0668L8.92188 12.9893H8.0554L5.91051 7.73366H5.84304V13H4.79901V5.72727ZM14.388 13H13.2232L15.8404 5.72727H17.1081L19.7253 13H18.5605L16.5044 7.0483H16.4476L14.388 13ZM14.5833 10.152H18.3617V11.0753H14.5833V10.152ZM20.7756 13V5.72727H23.3679C23.9313 5.72727 24.3989 5.82434 24.7706 6.01847C25.1446 6.21259 25.424 6.4813 25.6087 6.82457C25.7933 7.16548 25.8857 7.55966 25.8857 8.0071C25.8857 8.45218 25.7921 8.84399 25.6051 9.18253C25.4205 9.5187 25.1411 9.7803 24.767 9.96733C24.3954 10.1544 23.9278 10.2479 23.3643 10.2479H21.4006V9.30327H23.2649C23.62 9.30327 23.9089 9.25237 24.1314 9.15057C24.3563 9.04877 24.5208 8.9008 24.625 8.70668C24.7292 8.51255 24.7812 8.27936 24.7812 8.0071C24.7812 7.73248 24.728 7.49455 24.6214 7.29332C24.5173 7.09209 24.3527 6.93821 24.1278 6.83168C23.9053 6.72277 23.6129 6.66832 23.2507 6.66832H21.8729V13H20.7756ZM24.3658 9.71875L26.1626 13H24.9126L23.1513 9.71875H24.3658ZM32.1428 8.02486C32.0741 7.80942 31.9818 7.61648 31.8658 7.44602C31.7521 7.2732 31.616 7.12642 31.4574 7.00568C31.2988 6.88258 31.1177 6.78906 30.9141 6.72514C30.7128 6.66122 30.4915 6.62926 30.25 6.62926C29.8404 6.62926 29.4711 6.73461 29.142 6.94531C28.813 7.15601 28.5526 7.46496 28.3608 7.87216C28.1714 8.27699 28.0767 8.77296 28.0767 9.36009C28.0767 9.94957 28.1726 10.4479 28.3643 10.8551C28.5561 11.2623 28.8189 11.5713 29.1527 11.782C29.4865 11.9927 29.8665 12.098 30.2926 12.098C30.688 12.098 31.0324 12.0175 31.326 11.8565C31.6219 11.6955 31.8504 11.4683 32.0114 11.1747C32.1747 10.8788 32.2564 10.5308 32.2564 10.1307L32.5405 10.1839H30.4595V9.27841H33.3182V10.1058C33.3182 10.7166 33.188 11.2469 32.9276 11.6967C32.6695 12.1442 32.312 12.4898 31.8551 12.7337C31.4006 12.9775 30.8797 13.0994 30.2926 13.0994C29.6345 13.0994 29.0568 12.9479 28.5597 12.6449C28.0649 12.3419 27.679 11.9122 27.402 11.3558C27.125 10.7971 26.9865 10.1342 26.9865 9.36719C26.9865 8.78717 27.067 8.26634 27.228 7.80469C27.389 7.34304 27.6151 6.95123 27.9062 6.62926C28.1998 6.30492 28.5443 6.05753 28.9396 5.88707C29.3374 5.71425 29.7718 5.62784 30.2429 5.62784C30.6359 5.62784 31.0017 5.68584 31.3402 5.80185C31.6811 5.91785 31.9841 6.08239 32.2493 6.29545C32.5168 6.50852 32.7382 6.76184 32.9134 7.0554C33.0885 7.34659 33.2069 7.66974 33.2685 8.02486H32.1428ZM35.8084 5.72727V13H34.7111V5.72727H35.8084ZM43.2765 5.72727V13H42.2679L38.5712 7.66619H38.5037V13H37.4064V5.72727H38.4221L42.1223 11.0682H42.1898V5.72727H43.2765Z" 
fill="black"/>
<path d="M55.799 52V44.7273H58.3913C58.9571 44.7273 59.4259 44.8303 59.7976 45.0362C60.1693 45.2422 60.4474 45.5239 60.6321 45.8814C60.8168 46.2365 60.9091 46.6366 60.9091 47.0817C60.9091 47.5291 60.8156 47.9316 60.6286 48.2891C60.4439 48.6442 60.1645 48.9259 59.7905 49.1342C59.4188 49.3402 58.9512 49.4432 58.3878 49.4432H56.6051V48.5128H58.2884C58.6458 48.5128 58.9358 48.4512 59.1584 48.3281C59.3809 48.2027 59.5443 48.0322 59.6484 47.8168C59.7526 47.6013 59.8047 47.3563 59.8047 47.0817C59.8047 46.8071 59.7526 46.5632 59.6484 46.3501C59.5443 46.1371 59.3797 45.9702 59.1548 45.8494C58.9323 45.7287 58.6387 45.6683 58.2741 45.6683H56.8963V52H55.799ZM62.0384 52H60.8736L63.4908 44.7273H64.7585L67.3757 52H66.2109L64.1548 46.0483H64.098L62.0384 52ZM62.2337 49.152H66.0121V50.0753H62.2337V49.152ZM70.7804 52H68.426V44.7273H70.8549C71.5675 44.7273 72.1795 44.8729 72.6909 45.1641C73.2022 45.4529 73.594 45.8684 73.8663 46.4105C74.1409 46.9503 74.2782 47.5978 74.2782 48.353C74.2782 49.1106 74.1397 49.7616 73.8627 50.3061C73.5881 50.8506 73.1904 51.2696 72.6696 51.5632C72.1487 51.8544 71.519 52 70.7804 52ZM69.5233 51.0412H70.72C71.274 51.0412 71.7344 50.937 72.1014 50.7287C72.4683 50.518 72.743 50.2138 72.9252 49.8161C73.1075 49.416 73.1987 48.9283 73.1987 48.353C73.1987 47.7824 73.1075 47.2983 72.9252 46.9006C72.7453 46.5028 72.4766 46.201 72.1191 45.995C71.7617 45.7891 71.3178 45.6861 70.7875 45.6861H69.5233V51.0412ZM77.9972 52H75.6428V44.7273H78.0717C78.7843 44.7273 79.3963 44.8729 79.9077 45.1641C80.419 45.4529 80.8108 45.8684 81.0831 46.4105C81.3577 46.9503 81.495 47.5978 81.495 48.353C81.495 49.1106 81.3565 49.7616 81.0795 50.3061C80.8049 50.8506 80.4072 51.2696 79.8864 51.5632C79.3655 51.8544 78.7358 52 77.9972 52ZM76.7401 51.0412H77.9368C78.4908 51.0412 78.9512 50.937 79.3182 50.7287C79.6851 50.518 79.9598 50.2138 80.142 49.8161C80.3243 49.416 80.4155 48.9283 80.4155 48.353C80.4155 47.7824 80.3243 47.2983 80.142 46.9006C79.9621 46.5028 79.6934 46.201 79.3359 45.995C78.9785 45.7891 78.5346 45.6861 78.0043 45.6861H76.7401V51.0412ZM83.9569 44.7273V52H82.8596V44.7273H83.9569ZM91.4249 44.7273V52H90.4164L86.7196 46.6662H86.6522V52H85.5549V44.7273H86.5705L90.2708 50.0682H90.3382V44.7273H91.4249ZM97.9474 47.0249C97.8788 46.8094 97.7865 46.6165 97.6705 46.446C97.5568 46.2732 97.4207 46.1264 97.2621 46.0057C97.1035 45.8826 96.9223 45.7891 96.7188 45.7251C96.5175 45.6612 96.2962 45.6293 96.0547 45.6293C95.6451 45.6293 95.2758 45.7346 94.9467 45.9453C94.6177 46.156 94.3572 46.465 94.1655 46.8722C93.9761 47.277 93.8814 47.773 93.8814 48.3601C93.8814 48.9496 93.9773 49.4479 94.169 49.8551C94.3608 50.2623 94.6236 50.5713 94.9574 50.782C95.2912 50.9927 95.6712 51.098 96.0973 51.098C96.4927 51.098 96.8371 51.0175 97.1307 50.8565C97.4266 50.6955 97.6551 50.4683 97.8161 50.1747C97.9794 49.8788 98.0611 49.5308 98.0611 49.1307L98.3452 49.1839H96.2642V48.2784H99.1229V49.1058C99.1229 49.7166 98.9927 50.2469 98.7322 50.6967C98.4742 51.1442 98.1167 51.4898 97.6598 51.7337C97.2053 51.9775 96.6844 52.0994 96.0973 52.0994C95.4392 52.0994 94.8615 51.9479 94.3643 51.6449C93.8696 51.3419 93.4837 50.9122 93.2067 50.3558C92.9297 49.7971 92.7912 49.1342 92.7912 48.3672C92.7912 47.7872 92.8717 47.2663 93.0327 46.8047C93.1937 46.343 93.4197 45.9512 93.7109 45.6293C94.0045 45.3049 94.349 45.0575 94.7443 44.8871C95.142 44.7143 95.5765 44.6278 96.0476 44.6278C96.4406 44.6278 96.8063 44.6858 97.1449 44.8018C97.4858 44.9179 97.7888 45.0824 98.054 45.2955C98.3215 45.5085 98.5429 45.7618 98.718 46.0554C98.8932 46.3466 99.0116 46.6697 99.0732 47.0249H97.9474Z" 
fill="black"/>



</svg>
